<mxfile host="app.diagrams.net" modified="2024-04-07T07:19:22.391Z" agent="Mozilla/5.0 (Macintosh; Intel Mac OS X 10_15_7) AppleWebKit/537.36 (KHTML, like Gecko) Chrome/123.0.0.0 Safari/537.36" version="24.2.2" etag="yRE-wZLrpLX1dNdJAkFX" type="github">
  <diagram name="第 1 页" id="9vKJ3Avvo3djznr3jY_J">
    <mxGraphModel>
      <root>
        <mxCell id="0" />
        <mxCell id="1" parent="0" />
      </root>
    </mxGraphModel>
  </diagram>
</mxfile>
